<svg xmlns="http://www.w3.org/2000/svg" fill="none" viewBox="0 0 30 30">
   <path d="M24.1624 14.9999L9.62047 29.4194C8.83982 30.1935 7.57807 30.1935 6.79741 29.4194L0.585488 23.2598C-0.195163 22.4857 -0.195163 21.2346 0.585488 20.4605L15.1274 6.04102L24.1624 14.9999Z" fill="url(#paint0_linear)"/>
   <path d="M16.1588 13.0227L3.21151 25.864L0.917969 23.5898L13.8653 10.7515L16.1588 13.0227Z" fill="url(#paint1_linear)"/>
   <path d="M12.7491 21.5977L0.585488 9.53648C-0.195163 8.7624 -0.195163 7.51127 0.585488 6.73719L6.79741 0.58056C7.57807 -0.19352 8.83982 -0.19352 9.62047 0.58056L21.7841 12.6418L12.7491 21.5977Z" fill="url(#paint2_linear)"/>
   <path d="M26.2358 20.9404L17.6849 29.4192C16.9043 30.1933 15.6425 30.1933 14.8619 29.4192L8.64994 23.2596C7.86929 22.4855 7.86929 21.2344 8.64994 20.4603L17.2008 11.9814L26.2358 20.9404Z" fill="url(#paint3_linear)"/>
   <path d="M24.2233 13.0227L11.276 25.861L8.98242 23.5898L21.9297 10.7515L24.2233 13.0227Z" fill="url(#paint4_linear)"/>
   <path d="M28.4226 11.2284L17.6992 0.595314C16.9125 -0.184766 15.6356 -0.184766 14.8459 0.595314L8.66425 6.72495C7.87754 7.50503 7.87754 8.77116 8.66425 9.55424L18.495 19.3022C21.0881 21.8735 21.0881 26.0439 18.495 28.6152L23.191 23.9587L28.4226 18.7712C30.5225 16.689 30.5225 13.3136 28.4226 11.2284Z" fill="url(#paint5_linear)"/>
   <defs>
      <linearGradient id="paint0_linear" x1="0.360401" y1="29.6442" x2="9.17352" y2="20.7563" gradientUnits="userSpaceOnUse">
         <stop stop-color="#EDDE5D"/>
         <stop offset="1" stop-color="#F09819"/>
      </linearGradient>
      <linearGradient id="paint1_linear" x1="-1.90384" y1="28.6617" x2="5.24609" y2="21.4511" gradientUnits="userSpaceOnUse">
         <stop stop-color="#EDDE5D"/>
         <stop offset="1" stop-color="#F09819"/>
      </linearGradient>
      <linearGradient id="paint2_linear" x1="-1.40702" y1="-1.39517" x2="18.4525" y2="18.633" gradientUnits="userSpaceOnUse">
         <stop stop-color="#EDCE4D"/>
         <stop offset="1" stop-color="#F09819"/>
      </linearGradient>
      <linearGradient id="paint3_linear" x1="34.407" y1="3.88112" x2="12.6349" y2="25.8381" gradientUnits="userSpaceOnUse">
         <stop offset="0.1617" stop-color="#000428"/>
         <stop offset="1" stop-color="#004B8D"/>
      </linearGradient>
      <linearGradient id="paint4_linear" x1="22.0876" y1="12.8687" x2="10.0431" y2="25.0154" gradientUnits="userSpaceOnUse">
         <stop offset="0.1617" stop-color="#000428"/>
         <stop offset="1" stop-color="#004B8D"/>
      </linearGradient>
      <linearGradient id="paint5_linear" x1="-22.7211" y1="-25.8693" x2="21.4361" y2="18.6628" gradientUnits="userSpaceOnUse">
         <stop offset="0.1617" stop-color="#000428"/>
         <stop offset="1" stop-color="#004B8D"/>
      </linearGradient>
   </defs>
</svg>